<svg xmlns="http://www.w3.org/2000/svg" viewBox="0 0 841.9 595.3">
  <g fill="#61DAFB">
    <path d="M666.3 296.5c0 64.7-52.5 117.3-117.2 117.3-64.7 0-117.2-52.6-117.2-117.3 0-64.7 52.5-117.3 117.2-117.3 64.7 0 117.2 52.6 117.2 117.3z"/>
    <path d="M666.3 296.5c0 64.7-52.5 117.3-117.2 117.3-64.7 0-117.2-52.6-117.2-117.3 0-64.7 52.5-117.3 117.2-117.3 64.7 0 117.2 52.6 117.2 117.3z" transform="rotate(60 421 296.5)"/>
    <path d="M666.3 296.5c0 64.7-52.5 117.3-117.2 117.3-64.7 0-117.2-52.6-117.2-117.3 0-64.7 52.5-117.3 117.2-117.3 64.7 0 117.2 52.6 117.2 117.3z" transform="rotate(120 421 296.5)"/>
  </g>
</svg>
